<?xml version="1.0" standalone="no"?>
<!DOCTYPE svg PUBLIC "-//W3C//DTD SVG 20010904//EN"
 "http://www.w3.org/TR/2001/REC-SVG-20010904/DTD/svg10.dtd">
<svg version="1.0" xmlns="http://www.w3.org/2000/svg"
 width="300.000000pt" height="238.000000pt" viewBox="0 0 300.000000 238.000000"
 preserveAspectRatio="xMidYMid meet">
<metadata>
Created by potrace 1.16, written by Peter Selinger 2001-2019
</metadata>
<g transform="translate(0.000000,238.000000) scale(0.100000,-0.100000)"
fill="#D6BD96" stroke="none">
<path d="M1678 2058 l-556 -322 -2 -197 c0 -109 2 -209 5 -222 7 -25 8 -24
158 63 84 48 250 144 370 213 l217 126 0 -208 0 -208 -370 -213 c-203 -118
-370 -217 -370 -220 0 -8 365 -220 378 -220 5 0 175 96 378 213 l369 213 3
652 c2 518 0 652 -10 652 -7 0 -264 -145 -570 -322z"/>
<path d="M2803 2274 l-183 -105 0 -225 0 -225 43 25 c23 13 107 62 187 108
l145 84 3 222 c1 122 -1 222 -5 222 -5 0 -90 -48 -190 -106z"/>
<path d="M2808 1413 l-188 -108 0 -217 0 -216 -162 -94 c-90 -52 -258 -150
-375 -217 l-212 -122 -1 -220 c0 -135 3 -219 9 -219 9 0 1098 625 1114 639 4
4 6 204 5 444 l-3 437 -187 -107z"/>
</g>
</svg>
