<?xml version="1.0" standalone="no"?>
<!DOCTYPE svg PUBLIC "-//W3C//DTD SVG 20010904//EN"
 "http://www.w3.org/TR/2001/REC-SVG-20010904/DTD/svg10.dtd">
<svg version="1.0" xmlns="http://www.w3.org/2000/svg"
 width="150.000000pt" height="150.000000pt" viewBox="0 0 150.000000 150.000000"
 preserveAspectRatio="xMidYMid meet">
<metadata>
Created by potrace 1.16, written by Peter Selinger 2001-2019
</metadata>
<g transform="translate(0.000000,150.000000) scale(0.100000,-0.100000)"
fill="#000000" stroke="none">
<path d="M517 1085 l-136 -235 76 -227 c42 -126 78 -223 80 -218 2 6 36 107
77 225 l74 215 66 3 66 3 0 -311 0 -310 70 0 71 0 -34 30 c-52 45 -80 170 -38
170 10 0 32 3 49 6 30 6 31 5 37 -40 9 -55 39 -82 80 -72 51 13 54 31 56 298
l1 246 -28 49 c-54 94 -52 94 -105 3 l-47 -81 -82 143 c-46 79 -109 187 -140
241 l-57 97 -136 -235z"/>
<path d="M336 564 c3 -82 7 -191 10 -241 l6 -93 65 0 c50 0 64 3 60 13 -3 8
-35 114 -72 238 -37 123 -69 226 -70 228 -2 2 -2 -64 1 -145z"/>
<path d="M651 470 c-41 -132 -78 -241 -84 -243 -5 -1 24 -1 64 1 41 2 76 6 78
8 3 3 19 466 16 471 0 1 -34 -105 -74 -237z"/>
<path d="M1218 515 c-4 -200 -12 -229 -71 -265 l-32 -20 179 0 c151 0 177 2
173 14 -3 8 -47 86 -98 173 -51 87 -105 185 -120 218 l-27 60 -4 -180z"/>
<path d="M184 508 c-26 -46 -56 -100 -66 -120 -26 -53 -37 -55 -35 -6 2 37 -1
43 -18 43 -15 0 -22 -9 -28 -40 -5 -22 -12 -53 -17 -69 -6 -16 -7 -32 -5 -35
9 -8 42 34 37 47 -2 6 1 12 7 12 21 0 20 -20 -5 -64 l-26 -46 106 0 106 0 0
180 c0 99 -2 180 -4 180 -2 0 -26 -37 -52 -82z"/>
</g>
</svg>
